
<svg xmlns="http://www.w3.org/2000/svg" viewBox="0 0 512 512" width="512" height="512">
  
  <defs>
    <filter id="shadow" x="-20%" y="-20%" width="140%" height="140%">
      <feDropShadow dx="0" dy="12" stdDeviation="15" flood-opacity="0.25"/>
    </filter>
    <filter id="softShadow" x="-10%" y="-10%" width="120%" height="120%">
      <feDropShadow dx="0" dy="4" stdDeviation="6" flood-opacity="0.15"/>
    </filter>
  </defs>

  
  <g filter="url(#shadow)">
    <!-- Wheels -->
    <rect x="240" y="80" width="32" height="60" rx="10" fill="#1e293b" />
    <rect x="130" y="320" width="32" height="80" rx="10" fill="#1e293b" />
    <rect x="350" y="320" width="32" height="80" rx="10" fill="#1e293b" />
    <!-- Body -->
    <path d="M210 100 L302 100 L350 200 L350 380 L162 380 L162 200 Z" fill="#facc15" />
    <!-- Green Accent Bottom -->
    <path d="M162 350 L350 350 L350 380 L162 380 Z" fill="#16a34a" />
    <!-- Roof / Canvas -->
    <rect x="170" y="170" width="172" height="160" rx="10" fill="#0f172a" />
    <!-- Windshield -->
    <path d="M210 110 L302 110 L330 160 L182 160 Z" fill="#94a3b8" />
    <path d="M220 120 L292 120 L315 150 L197 150 Z" fill="#cbd5e1" />
  </g>

</svg>
