
<svg xmlns="http://www.w3.org/2000/svg" viewBox="0 0 512 512" width="512" height="512">
  
  <defs>
    <filter id="shadow" x="-20%" y="-20%" width="140%" height="140%">
      <feDropShadow dx="0" dy="12" stdDeviation="15" flood-opacity="0.25"/>
    </filter>
    <filter id="softShadow" x="-10%" y="-10%" width="120%" height="120%">
      <feDropShadow dx="0" dy="4" stdDeviation="6" flood-opacity="0.15"/>
    </filter>
  </defs>

  
  <g filter="url(#shadow)">
    <!-- Wheels -->
    <rect x="236" y="80" width="40" height="90" rx="15" fill="#1e293b" />
    <rect x="236" y="342" width="40" height="90" rx="15" fill="#1e293b" />
    <!-- Body -->
    <path d="M226 140 L286 140 L296 220 L276 360 L236 360 L216 220 Z" fill="#3b82f6" />
    <path d="M236 140 L276 140 L281 220 L266 350 L246 350 L231 220 Z" fill="#2563eb" />
    <!-- Handlebars -->
    <rect x="176" y="160" width="160" height="12" rx="6" fill="#475569" />
    <rect x="176" y="150" width="16" height="32" rx="4" fill="#0f172a" />
    <rect x="320" y="150" width="16" height="32" rx="4" fill="#0f172a" />
    <!-- Seat -->
    <path d="M236 240 L276 240 L286 320 L276 340 L236 340 L226 320 Z" fill="#0f172a" />
  </g>

</svg>
