
<svg xmlns="http://www.w3.org/2000/svg" viewBox="0 0 512 512" width="512" height="512">
  
  <defs>
    <filter id="shadow" x="-20%" y="-20%" width="140%" height="140%">
      <feDropShadow dx="0" dy="12" stdDeviation="15" flood-opacity="0.25"/>
    </filter>
    <filter id="softShadow" x="-10%" y="-10%" width="120%" height="120%">
      <feDropShadow dx="0" dy="4" stdDeviation="6" flood-opacity="0.15"/>
    </filter>
  </defs>

  
  <g filter="url(#shadow)">
    <!-- Mirrors -->
    <rect x="116" y="100" width="30" height="20" rx="5" fill="#1e293b" />
    <rect x="366" y="100" width="30" height="20" rx="5" fill="#1e293b" />
    <!-- Body -->
    <rect x="146" y="40" width="220" height="432" rx="35" fill="#3b82f6" />
    <!-- Front Windshield -->
    <path d="M156 80 L356 80 L336 140 L176 140 Z" fill="#1e293b" />
    <!-- Rear Windshield -->
    <rect x="166" y="440" width="180" height="20" rx="10" fill="#1e293b" />
    <!-- Roof Details -->
    <rect x="176" y="140" width="160" height="300" fill="#bfdbfe" filter="url(#softShadow)" />
    <!-- AC Units -->
    <rect x="206" y="180" width="100" height="60" rx="10" fill="#e2e8f0" />
    <rect x="206" y="320" width="100" height="60" rx="10" fill="#e2e8f0" />
    <!-- Vents -->
    <rect x="226" y="190" width="60" height="8" fill="#94a3b8" />
    <rect x="226" y="210" width="60" height="8" fill="#94a3b8" />
    <rect x="226" y="330" width="60" height="8" fill="#94a3b8" />
    <rect x="226" y="350" width="60" height="8" fill="#94a3b8" />
  </g>

</svg>
