
<svg xmlns="http://www.w3.org/2000/svg" viewBox="0 0 512 512" width="512" height="512">
  
  <defs>
    <filter id="shadow" x="-20%" y="-20%" width="140%" height="140%">
      <feDropShadow dx="0" dy="12" stdDeviation="15" flood-opacity="0.25"/>
    </filter>
    <filter id="softShadow" x="-10%" y="-10%" width="120%" height="120%">
      <feDropShadow dx="0" dy="4" stdDeviation="6" flood-opacity="0.15"/>
    </filter>
  </defs>

  
  <g filter="url(#shadow)">
    <!-- Cab -->
    <rect x="166" y="30" width="180" height="120" rx="20" fill="#ffffff" />
    <path d="M176 70 L336 70 L316 110 L196 110 Z" fill="#1e293b" />
    <!-- Container Base -->
    <rect x="136" y="160" width="240" height="320" rx="5" fill="#0369a1" />
    <!-- Container Roof -->
    <rect x="146" y="170" width="220" height="300" fill="#0284c7" />
    <!-- Ribs -->
    <path d="
      M 160 170 L 160 470 M 180 170 L 180 470 M 200 170 L 200 470 
      M 220 170 L 220 470 M 240 170 L 240 470 M 260 170 L 260 470 
      M 280 170 L 280 470 M 300 170 L 300 470 M 320 170 L 320 470 
      M 340 170 L 340 470
    " fill="none" stroke="#0ea5e9" stroke-width="6" />
    <rect x="236" y="130" width="40" height="30" fill="#334155" />
  </g>

</svg>
