
<svg xmlns="http://www.w3.org/2000/svg" viewBox="0 0 512 512" width="512" height="512">
  
  <defs>
    <filter id="shadow" x="-20%" y="-20%" width="140%" height="140%">
      <feDropShadow dx="0" dy="12" stdDeviation="15" flood-opacity="0.25"/>
    </filter>
    <filter id="softShadow" x="-10%" y="-10%" width="120%" height="120%">
      <feDropShadow dx="0" dy="4" stdDeviation="6" flood-opacity="0.15"/>
    </filter>
  </defs>

  
  <g filter="url(#shadow)">
    <!-- Mirrors -->
    <rect x="130" y="200" width="30" height="20" rx="5" fill="#facc15" />
    <rect x="352" y="200" width="30" height="20" rx="5" fill="#facc15" />
    <!-- Body -->
    <rect x="156" y="80" width="200" height="352" rx="40" fill="#facc15" />
    <!-- Front Windshield -->
    <path d="M176 160 L336 160 L320 220 L192 220 Z" fill="#334155" />
    <!-- Rear Windshield -->
    <path d="M186 350 L326 350 L310 290 L202 290 Z" fill="#334155" />
    <!-- Roof -->
    <rect x="192" y="220" width="128" height="70" fill="#eab308" />
    <!-- Taxi Sign -->
    <rect x="226" y="240" width="60" height="20" rx="4" fill="#0f172a" />
    <rect x="230" y="244" width="52" height="12" rx="2" fill="#facc15" />
    <!-- Stripe -->
    <rect x="156" y="250" width="36" height="10" fill="#0f172a" />
    <rect x="320" y="250" width="36" height="10" fill="#0f172a" />
  </g>

</svg>
