
<svg xmlns="http://www.w3.org/2000/svg" viewBox="0 0 512 512" width="512" height="512">
  
  <defs>
    <filter id="shadow" x="-20%" y="-20%" width="140%" height="140%">
      <feDropShadow dx="0" dy="12" stdDeviation="15" flood-opacity="0.25"/>
    </filter>
    <filter id="softShadow" x="-10%" y="-10%" width="120%" height="120%">
      <feDropShadow dx="0" dy="4" stdDeviation="6" flood-opacity="0.15"/>
    </filter>
  </defs>

  
  <g filter="url(#shadow)">
    <!-- Mirrors -->
    <rect x="126" y="160" width="30" height="25" rx="5" fill="#1e293b" />
    <rect x="356" y="160" width="30" height="25" rx="5" fill="#1e293b" />
    <!-- Body Base -->
    <rect x="156" y="60" width="200" height="392" rx="30" fill="#e2e8f0" />
    <!-- Bumper -->
    <rect x="156" y="60" width="200" height="40" rx="20" fill="#cbd5e1" />
    <!-- Front Windshield -->
    <path d="M166 120 L346 120 L330 180 L182 180 Z" fill="#334155" />
    <!-- Roof -->
    <rect x="176" y="180" width="160" height="250" rx="10" fill="#f8fafc" filter="url(#softShadow)" />
    <!-- Roof Ribs -->
    <rect x="200" y="210" width="112" height="8" rx="4" fill="#e2e8f0" />
    <rect x="200" y="250" width="112" height="8" rx="4" fill="#e2e8f0" />
    <rect x="200" y="290" width="112" height="8" rx="4" fill="#e2e8f0" />
    <rect x="200" y="330" width="112" height="8" rx="4" fill="#e2e8f0" />
    <rect x="200" y="370" width="112" height="8" rx="4" fill="#e2e8f0" />
  </g>

</svg>
